<?xml version="1.0" encoding="utf-8"?>
<!-- Generator: Adobe Illustrator 20.1.0, SVG Export Plug-In . SVG Version: 6.00 Build 0)  -->
<svg version="1.1" id="Layer_1" xmlns="http://www.w3.org/2000/svg" xmlns:xlink="http://www.w3.org/1999/xlink" x="0px" y="0px"
	 width="919.3px" height="1000px" viewBox="0 0 919.3 1000" style="enable-background:new 0 0 919.3 1000;" xml:space="preserve">
<style type="text/css">
	.st0{fill:#E53F00;}
</style>
<g>
	<path class="st0" d="M91.4,752.4c0.2,0.3,28.1,36.2,53.5,24c25.5-12.2,27.9-85.1-4.9-129.4c0,0-42.6-26.5-72.6-14.8
		c2.9,6.5,5.8,11.8,5.8,11.8s-3.6,14.1,0,23.5c3.6,9.4,14,14.1,14.4,19.2C87.8,690.3,85.8,726.3,91.4,752.4z"/>
	<path class="st0" d="M914.5,367.5c-20-89.8-66.2-108.6-124.4-74.6c0,0-41.9-216.1-176.6-253.7C478.8,1.5,309.5-43.4,180.2,81.6
		c0,0-138.1,113.9-110.9,242.4c0,0,13,48-7.9,83.7s-55.8,93.2-59.9,109c-4,15.8,1.3,44.4,16.5,49.4c15.1,5,32,9.1,32,9.1
		s5.4,10.8,9.4,13.8c1.4,1.1,2,3.3,2.3,6.1c0-0.1,0-0.2,0-0.2c0,0,20.1-12.2,37.7-5.5c17.6,6.7,45.6,22.5,52.2,46.2
		c6.7,23.7,26.1,119.7,52.9,133.7s165.8-39.5,173.7-96.6c7.9-57.1-16.4-170.7-15.2-179.8c1.2-9.1,25.5-41.9,28.6-41.3
		c3,0.6,24.3,142.8,65,164.6c40.7,21.9,8.5,82-3.6,94.2c-10.3,10.3-73,88.5-154,113.4c3.3,13.3,8.8,30,16.9,39
		c14.9,16.4,32.1,22.4,37.3,31.3c5.2,9,19.4,33.6,23.9,47.8c4.5,14.2,14.9,35.1,14.9,44.8c0,9.7,110.5,52.2,383.6-88.8
		c0,0-84.3-126-84.9-155.7c0,0,15.8-41.9,25.5-54.6c9.7-12.7,42.5-89.8,45.5-122c0,0,18.2,19.4,23.7,22.5c0,0-3-6.1,0-14
		c0,0,23.7,10.3,27.9,16.4c0,0,0.6-23.1-3.6-38.2c0,0,7.3,6.1,9.7,11.5c0,0-10.3-24.9-15.2-31.6s-4.9-11.5-4.9-11.5
		s27.9,6.1,46.1-2.4c0,0,3,3.6,0,8.5c0,0,31.6-18.8,40.1-39.4c0,0,4.2,9.7,0,15.2C885.4,502.2,934.6,457.3,914.5,367.5z"/>
</g>
</svg>
